<svg id="Layer_1" data-name="Layer 1" xmlns="http://www.w3.org/2000/svg" viewBox="0 0 474.05 186.01"><defs><style>.cls-1{fill:#f26c4f;}</style></defs><title>EM-logo</title><path class="cls-1" d="M102.3,186H3.19Q0,186,0,182.55V3.45Q0,.53,3.19,0H102.3q3.19,0,3.19,3.32T102.3,6.64H6.64V89.55H90.88q3.19,0,3.19,3.32t-3.19,3.32H6.64v83.17H102.3q3.19,0,3.19,3.32T102.3,186Z"/><path class="cls-1" d="M200.62,148.28q-4.52,0-4.52-11.16,0-16.2,12.49-24.45t34-8.24q6.11,0,9.57.27h1.59q17,0,18.34-16.47A56,56,0,0,0,271,80.52q-1.33-2.92,2.26-3.85t4.12,2.52q4,14.89-4,24.45a20.75,20.75,0,0,1-13,7.44,61.4,61.4,0,0,1,1.86,15.41,57.38,57.38,0,0,1-17.41,42.12Q227.46,186,202.61,186T160.36,168.6A57.36,57.36,0,0,1,143,126.49a58.36,58.36,0,0,1,8-29.89,60,60,0,0,1,21.26-21.66q-13.82-13-13.82-31.36t12.62-31a43,43,0,0,1,60.85,0A41.48,41.48,0,0,1,244.47,43q0,3.46-3.45,3.45A3.64,3.64,0,0,1,237.56,43a35.11,35.11,0,0,0-10.63-25.78A35,35,0,0,0,201.28,6.64a34.52,34.52,0,0,0-25.51,10.63A35.32,35.32,0,0,0,165.28,43q0,19.13,15.15,29.76l1.06,1.33a3.75,3.75,0,0,1-.4,3.19,2.83,2.83,0,0,1-2.52,1.59,54.58,54.58,0,0,0-21,19.66A52.88,52.88,0,0,0,165,163.82a50.78,50.78,0,0,0,37.47,15.55A51.44,51.44,0,0,0,240.08,164a50.77,50.77,0,0,0,15.55-37.47,56,56,0,0,0-2.13-14.88h-1.59a64.35,64.35,0,0,0-9.3-.53q-23.12,0-33.22,9.57Q203,127,203,137.11l.27,5,.27,1.59q1.06,2.93-1.86,4.52Z"/><path class="cls-1" d="M467.41,182.55v-169l-67.76,94.33a4.06,4.06,0,0,1-2.92,1.33h-.53a3.12,3.12,0,0,1-2.92-1.33l-68-94.6V182.55q0,3.46-3.32,3.45t-3.32-3.45V3.72a3.31,3.31,0,0,1,1.06-2.39A3.07,3.07,0,0,1,321.79.27a6.09,6.09,0,0,1,3.45,1.33l71.21,98.85L467.67,1.59A4.07,4.07,0,0,1,470.6.27q3.45,0,3.45,3.45V182.55q0,3.46-3.45,3.45a2.88,2.88,0,0,1-2.26-1.06A3.51,3.51,0,0,1,467.41,182.55Z"/></svg>